<mxfile host="Electron" modified="2024-06-13T14:25:11.052Z" agent="Mozilla/5.0 (Windows NT 10.0; Win64; x64) AppleWebKit/537.36 (KHTML, like Gecko) draw.io/21.2.8 Chrome/112.0.5615.165 Electron/24.2.0 Safari/537.36" etag="UIOnFSH1oikL23PSgQDI" version="21.2.8" type="device">
  <diagram name="第 1 页" id="RzkD8lSpZdeh0Qot4_BQ">
    <mxGraphModel dx="1434" dy="854" grid="1" gridSize="10" guides="1" tooltips="1" connect="1" arrows="1" fold="1" page="1" pageScale="1" pageWidth="2339" pageHeight="3300" math="0" shadow="0">
      <root>
        <mxCell id="0" />
        <mxCell id="1" parent="0" />
        <mxCell id="okXNAG12LDVqYpWkMVI5-1" value="" style="rounded=0;whiteSpace=wrap;html=1;" vertex="1" parent="1">
          <mxGeometry x="1110" y="130" width="120" height="630" as="geometry" />
        </mxCell>
        <mxCell id="okXNAG12LDVqYpWkMVI5-2" value="DDR" style="text;strokeColor=none;fillColor=none;html=1;fontSize=24;fontStyle=1;verticalAlign=middle;align=center;" vertex="1" parent="1">
          <mxGeometry x="1120" y="380" width="100" height="40" as="geometry" />
        </mxCell>
        <mxCell id="okXNAG12LDVqYpWkMVI5-9" style="edgeStyle=orthogonalEdgeStyle;rounded=0;orthogonalLoop=1;jettySize=auto;html=1;entryX=0;entryY=0.5;entryDx=0;entryDy=0;" edge="1" parent="1" source="okXNAG12LDVqYpWkMVI5-3" target="okXNAG12LDVqYpWkMVI5-7">
          <mxGeometry relative="1" as="geometry" />
        </mxCell>
        <mxCell id="okXNAG12LDVqYpWkMVI5-3" value="ARM Core" style="rounded=1;whiteSpace=wrap;html=1;" vertex="1" parent="1">
          <mxGeometry x="550" y="150" width="120" height="160" as="geometry" />
        </mxCell>
        <mxCell id="okXNAG12LDVqYpWkMVI5-14" style="edgeStyle=orthogonalEdgeStyle;rounded=0;orthogonalLoop=1;jettySize=auto;html=1;entryX=0;entryY=0.5;entryDx=0;entryDy=0;" edge="1" parent="1" source="okXNAG12LDVqYpWkMVI5-4" target="okXNAG12LDVqYpWkMVI5-5">
          <mxGeometry relative="1" as="geometry">
            <mxPoint x="730" y="445" as="targetPoint" />
          </mxGeometry>
        </mxCell>
        <mxCell id="okXNAG12LDVqYpWkMVI5-4" value="Sigmastar IP" style="rounded=1;whiteSpace=wrap;html=1;" vertex="1" parent="1">
          <mxGeometry x="550" y="365" width="120" height="160" as="geometry" />
        </mxCell>
        <mxCell id="okXNAG12LDVqYpWkMVI5-5" value="" style="rounded=0;whiteSpace=wrap;html=1;" vertex="1" parent="1">
          <mxGeometry x="1020" y="130" width="90" height="630" as="geometry" />
        </mxCell>
        <mxCell id="okXNAG12LDVqYpWkMVI5-6" value="MIU" style="text;strokeColor=none;fillColor=none;html=1;fontSize=24;fontStyle=1;verticalAlign=middle;align=center;" vertex="1" parent="1">
          <mxGeometry x="1015" y="330" width="100" height="40" as="geometry" />
        </mxCell>
        <mxCell id="okXNAG12LDVqYpWkMVI5-10" style="edgeStyle=orthogonalEdgeStyle;rounded=0;orthogonalLoop=1;jettySize=auto;html=1;entryX=0.033;entryY=0.159;entryDx=0;entryDy=0;entryPerimeter=0;" edge="1" parent="1" source="okXNAG12LDVqYpWkMVI5-7" target="okXNAG12LDVqYpWkMVI5-5">
          <mxGeometry relative="1" as="geometry" />
        </mxCell>
        <mxCell id="okXNAG12LDVqYpWkMVI5-7" value="ARM MMU" style="rounded=0;whiteSpace=wrap;html=1;" vertex="1" parent="1">
          <mxGeometry x="760" y="150" width="120" height="160" as="geometry" />
        </mxCell>
        <mxCell id="okXNAG12LDVqYpWkMVI5-8" value="IO MMU" style="rounded=0;whiteSpace=wrap;html=1;" vertex="1" parent="1">
          <mxGeometry x="1032.5" y="410" width="65" height="160" as="geometry" />
        </mxCell>
        <mxCell id="okXNAG12LDVqYpWkMVI5-20" style="edgeStyle=orthogonalEdgeStyle;rounded=0;orthogonalLoop=1;jettySize=auto;html=1;entryX=0;entryY=0.5;entryDx=0;entryDy=0;" edge="1" parent="1" source="okXNAG12LDVqYpWkMVI5-15" target="okXNAG12LDVqYpWkMVI5-17">
          <mxGeometry relative="1" as="geometry" />
        </mxCell>
        <mxCell id="okXNAG12LDVqYpWkMVI5-26" style="edgeStyle=orthogonalEdgeStyle;rounded=0;orthogonalLoop=1;jettySize=auto;html=1;entryX=0.5;entryY=1;entryDx=0;entryDy=0;" edge="1" parent="1" source="okXNAG12LDVqYpWkMVI5-15" target="okXNAG12LDVqYpWkMVI5-18">
          <mxGeometry relative="1" as="geometry" />
        </mxCell>
        <mxCell id="okXNAG12LDVqYpWkMVI5-15" value="硬件电路" style="rounded=0;whiteSpace=wrap;html=1;" vertex="1" parent="1">
          <mxGeometry x="690" y="1500" width="120" height="60" as="geometry" />
        </mxCell>
        <mxCell id="okXNAG12LDVqYpWkMVI5-19" style="edgeStyle=orthogonalEdgeStyle;rounded=0;orthogonalLoop=1;jettySize=auto;html=1;entryX=0;entryY=0.5;entryDx=0;entryDy=0;" edge="1" parent="1" source="okXNAG12LDVqYpWkMVI5-16" target="okXNAG12LDVqYpWkMVI5-15">
          <mxGeometry relative="1" as="geometry" />
        </mxCell>
        <mxCell id="okXNAG12LDVqYpWkMVI5-16" value="RDMA" style="ellipse;whiteSpace=wrap;html=1;aspect=fixed;" vertex="1" parent="1">
          <mxGeometry x="520" y="1490" width="80" height="80" as="geometry" />
        </mxCell>
        <mxCell id="okXNAG12LDVqYpWkMVI5-17" value="WDMA" style="ellipse;whiteSpace=wrap;html=1;aspect=fixed;" vertex="1" parent="1">
          <mxGeometry x="900" y="1490" width="80" height="80" as="geometry" />
        </mxCell>
        <mxCell id="okXNAG12LDVqYpWkMVI5-21" style="edgeStyle=orthogonalEdgeStyle;rounded=0;orthogonalLoop=1;jettySize=auto;html=1;entryX=0.5;entryY=0;entryDx=0;entryDy=0;" edge="1" parent="1" source="okXNAG12LDVqYpWkMVI5-18" target="okXNAG12LDVqYpWkMVI5-16">
          <mxGeometry relative="1" as="geometry" />
        </mxCell>
        <mxCell id="okXNAG12LDVqYpWkMVI5-24" style="edgeStyle=orthogonalEdgeStyle;rounded=0;orthogonalLoop=1;jettySize=auto;html=1;entryX=0.5;entryY=0;entryDx=0;entryDy=0;" edge="1" parent="1" source="okXNAG12LDVqYpWkMVI5-18" target="okXNAG12LDVqYpWkMVI5-17">
          <mxGeometry relative="1" as="geometry" />
        </mxCell>
        <mxCell id="okXNAG12LDVqYpWkMVI5-18" value="线程" style="rounded=0;whiteSpace=wrap;html=1;" vertex="1" parent="1">
          <mxGeometry x="690" y="1340" width="120" height="60" as="geometry" />
        </mxCell>
        <mxCell id="okXNAG12LDVqYpWkMVI5-22" value="输入buf信息" style="text;html=1;strokeColor=none;fillColor=none;align=center;verticalAlign=middle;whiteSpace=wrap;rounded=0;" vertex="1" parent="1">
          <mxGeometry x="530" y="1400" width="90" height="30" as="geometry" />
        </mxCell>
        <mxCell id="okXNAG12LDVqYpWkMVI5-23" value="输出buf信息" style="text;html=1;strokeColor=none;fillColor=none;align=center;verticalAlign=middle;whiteSpace=wrap;rounded=0;" vertex="1" parent="1">
          <mxGeometry x="940" y="1420" width="90" height="30" as="geometry" />
        </mxCell>
        <mxCell id="okXNAG12LDVqYpWkMVI5-27" value="中断" style="text;strokeColor=none;fillColor=none;html=1;fontSize=24;fontStyle=1;verticalAlign=middle;align=center;" vertex="1" parent="1">
          <mxGeometry x="730" y="1430" width="100" height="40" as="geometry" />
        </mxCell>
      </root>
    </mxGraphModel>
  </diagram>
</mxfile>
